<svg xmlns="http://www.w3.org/2000/svg" id="yt" width="21" height="20">
<defs>
    <linearGradient id="gradientYT" gradientUnits="userSpaceOnUse" fy="90%" gradientTransform="rotate(45)" >
        <stop  offset="0" style="stop-color:#D3205A"/>
        <stop  offset="1" style="stop-color:#FF5A5A"/>
        <animate attributeName="fy" from="0" to="1" dur="5s" repeatCount="indefinite" />
    </linearGradient>
</defs>
<path d="M43.33 0c-5.523 0-10 4.478-10 10 0 5.523 4.477 10 10 10s10-4.477 10-10c0-5.522-4.477-10-10-10zm3.7 14.077c-1.75.12-5.653.12-7.402 0-1.896-.13-2.117-1.059-2.131-4.077.014-3.024.237-3.947 2.131-4.077 1.75-.12 5.652-.12 7.403 0 1.897.13 2.117 1.059 2.132 4.077-.015 3.024-.237 3.947-2.132 4.077zm-5.367-6.029l4.098 1.949-4.098 1.955V8.048z" transform="translate(-33)"/>

</svg>
